<mxfile host="app.diagrams.net" modified="2022-08-13T09:40:02.077Z" agent="5.0 (Macintosh; Intel Mac OS X 10_15_7) AppleWebKit/537.36 (KHTML, like Gecko) Chrome/103.0.0.0 Safari/537.36" etag="y7zPDlV0wa8qj5jAphW0" version="20.2.3" type="github">
  <diagram id="t6_LyMhLClDO4tWqVLgv" name="第 1 页">
    <mxGraphModel dx="1426" dy="728" grid="0" gridSize="10" guides="1" tooltips="1" connect="1" arrows="1" fold="1" page="1" pageScale="1" pageWidth="827" pageHeight="1169" math="0" shadow="0">
      <root>
        <mxCell id="0" />
        <mxCell id="1" parent="0" />
        <mxCell id="IKCdtFV47PzjzlfWqauy-6" value="" style="edgeStyle=orthogonalEdgeStyle;rounded=0;orthogonalLoop=1;jettySize=auto;html=1;" edge="1" parent="1" source="IKCdtFV47PzjzlfWqauy-1" target="IKCdtFV47PzjzlfWqauy-2">
          <mxGeometry relative="1" as="geometry" />
        </mxCell>
        <mxCell id="IKCdtFV47PzjzlfWqauy-1" value="module definition （python and cala）&lt;br&gt;组件的定义" style="rounded=0;whiteSpace=wrap;html=1;" vertex="1" parent="1">
          <mxGeometry x="262" y="96" width="121" height="60" as="geometry" />
        </mxCell>
        <mxCell id="IKCdtFV47PzjzlfWqauy-7" value="" style="edgeStyle=orthogonalEdgeStyle;rounded=0;orthogonalLoop=1;jettySize=auto;html=1;" edge="1" parent="1" source="IKCdtFV47PzjzlfWqauy-2" target="IKCdtFV47PzjzlfWqauy-3">
          <mxGeometry relative="1" as="geometry" />
        </mxCell>
        <mxCell id="IKCdtFV47PzjzlfWqauy-2" value="module_export.python&lt;br&gt;moduleExport.scala" style="rounded=0;whiteSpace=wrap;html=1;" vertex="1" parent="1">
          <mxGeometry x="262" y="205" width="120" height="60" as="geometry" />
        </mxCell>
        <mxCell id="IKCdtFV47PzjzlfWqauy-8" value="" style="edgeStyle=orthogonalEdgeStyle;rounded=0;orthogonalLoop=1;jettySize=auto;html=1;" edge="1" parent="1" source="IKCdtFV47PzjzlfWqauy-3" target="IKCdtFV47PzjzlfWqauy-4">
          <mxGeometry relative="1" as="geometry" />
        </mxCell>
        <mxCell id="IKCdtFV47PzjzlfWqauy-3" value="组件的sql数据" style="rounded=0;whiteSpace=wrap;html=1;" vertex="1" parent="1">
          <mxGeometry x="262" y="314" width="120" height="60" as="geometry" />
        </mxCell>
        <mxCell id="IKCdtFV47PzjzlfWqauy-9" value="" style="edgeStyle=orthogonalEdgeStyle;rounded=0;orthogonalLoop=1;jettySize=auto;html=1;" edge="1" parent="1" source="IKCdtFV47PzjzlfWqauy-4" target="IKCdtFV47PzjzlfWqauy-5">
          <mxGeometry relative="1" as="geometry" />
        </mxCell>
        <mxCell id="IKCdtFV47PzjzlfWqauy-4" value="mysql/pg" style="rounded=0;whiteSpace=wrap;html=1;" vertex="1" parent="1">
          <mxGeometry x="262" y="428" width="120" height="60" as="geometry" />
        </mxCell>
        <mxCell id="IKCdtFV47PzjzlfWqauy-5" value="modelengine" style="rounded=0;whiteSpace=wrap;html=1;" vertex="1" parent="1">
          <mxGeometry x="262" y="542" width="120" height="60" as="geometry" />
        </mxCell>
      </root>
    </mxGraphModel>
  </diagram>
</mxfile>
